<?xml version="1.0" standalone="no"?>
<!DOCTYPE svg PUBLIC "-//W3C//DTD SVG 20010904//EN"
 "http://www.w3.org/TR/2001/REC-SVG-20010904/DTD/svg10.dtd">
<svg version="1.0" xmlns="http://www.w3.org/2000/svg"
 width="1024.000000pt" height="1024.000000pt" viewBox="0 0 1024.000000 1024.000000"
 preserveAspectRatio="xMidYMid meet">

<g transform="translate(0.000000,1024.000000) scale(0.100000,-0.100000)"
fill="#000000" stroke="none">
<path d="M4970 6863 c-398 -17 -756 -71 -1060 -160 -339 -99 -248 -89 -860
-96 -415 -5 -985 -22 -1239 -37 -3 0 0 -5 5 -10 6 -6 120 -28 255 -51 758
-125 916 -152 1034 -175 71 -14 132 -28 135 -31 10 -10 -201 -170 -282 -213
-111 -60 -112 -60 -1031 -60 -901 0 -884 1 -921 -51 -9 -13 -16 -43 -16 -67 0
-53 38 -98 91 -106 19 -2 361 -10 762 -16 400 -6 736 -14 747 -18 18 -7 17
-12 -27 -77 -26 -39 -66 -115 -90 -170 l-42 -100 -143 -7 c-79 -3 -271 -11
-428 -18 -483 -19 -922 -39 -985 -45 -106 -10 -157 -30 -126 -49 5 -4 130 -17
278 -31 753 -71 1321 -130 1329 -138 3 -3 -2 -52 -10 -110 -30 -200 -13 -414
41 -527 26 -53 132 -170 155 -170 7 0 9 22 5 73 -14 168 33 382 115 521 52 88
138 173 213 211 55 28 68 30 165 30 103 0 107 -1 178 -39 213 -114 354 -394
369 -736 13 -293 -59 -530 -207 -681 -53 -54 -56 -60 -36 -65 38 -9 159 16
221 46 33 16 82 49 108 75 49 46 124 155 146 213 8 17 17 32 21 32 5 0 325
-31 712 -70 387 -38 731 -73 765 -76 l61 -6 6 63 c3 35 10 105 15 154 6 64 5
93 -3 101 -6 6 -47 20 -91 31 -368 92 -845 218 -985 259 -131 39 -360 115
-360 120 0 16 561 -77 1118 -186 139 -28 261 -50 271 -50 11 0 22 8 26 18 4 9
18 49 32 87 65 178 184 364 286 446 28 23 86 58 127 78 71 34 80 36 176 36 96
0 104 -2 177 -38 273 -135 453 -506 434 -897 -14 -293 -104 -529 -264 -691
-76 -78 -73 -83 52 -68 184 20 326 117 425 286 l35 59 330 12 c315 12 670 28
802 36 l61 4 32 -49 c17 -26 56 -71 86 -98 274 -243 733 -151 935 189 32 55
46 70 65 70 46 0 180 50 241 90 69 45 124 104 155 164 63 123 64 543 1 712
l-19 49 -74 -2 c-41 -1 -162 -13 -267 -25 -174 -22 -193 -22 -193 -8 0 9 18
53 40 98 61 126 156 217 263 251 20 7 37 17 37 23 0 34 -75 142 -150 218 -172
173 -399 290 -720 370 -63 16 -245 50 -404 75 -395 64 -372 53 -666 285 -148
116 -380 281 -496 353 -391 239 -784 348 -1364 377 -179 9 -420 10 -580 3z
m1230 -372 c156 -21 284 -54 393 -102 180 -79 455 -279 759 -550 l86 -77 -66
-6 c-139 -13 -1201 -26 -1296 -16 -179 18 -241 57 -419 264 -67 77 -199 222
-293 321 l-172 180 112 6 c61 4 255 5 431 3 249 -2 352 -7 465 -23z m-1685
-46 c152 -32 324 -144 512 -332 97 -97 444 -476 440 -479 -4 -3 -268 30 -612
77 -324 44 -556 78 -1095 160 -74 11 -190 29 -258 38 -67 10 -125 20 -128 23
-7 8 169 169 256 234 187 141 428 253 609 284 76 13 202 11 276 -5z m2354
-1240 c133 -17 354 -62 576 -115 392 -94 566 -176 667 -315 l29 -40 -33 -7
c-18 -4 -168 -12 -333 -19 -584 -24 -812 19 -986 188 -121 116 -161 233 -100
294 34 34 33 34 180 14z m2416 -941 c-133 -111 -449 -189 -970 -238 -212 -21
-571 -46 -637 -46 l-53 0 25 20 c14 11 64 47 111 80 l86 59 129 10 c290 24
722 68 1029 106 341 41 317 40 280 9z"/>
<path d="M2940 4923 c-61 -22 -146 -111 -188 -195 -61 -125 -76 -201 -76 -403
0 -207 14 -277 84 -420 92 -190 233 -279 383 -240 140 36 238 158 289 363 30
118 32 369 4 482 -42 174 -147 335 -257 395 -66 36 -169 44 -239 18z m143
-362 c55 -21 87 -84 108 -211 11 -71 -3 -195 -28 -245 -24 -47 -64 -85 -91
-85 -42 0 -96 67 -117 143 -37 136 -4 335 63 387 28 23 32 23 65 11z"/>
<path d="M1315 4790 c-219 -4 -254 -7 -278 -23 -47 -30 -63 -110 -31 -155 38
-55 40 -55 508 -47 238 3 446 11 463 16 66 21 92 94 57 160 -32 63 -44 64
-719 49z"/>
<path d="M5873 4761 c-146 -50 -264 -213 -318 -441 -23 -95 -30 -289 -16 -406
32 -259 157 -476 319 -556 58 -29 76 -33 147 -33 69 0 88 4 138 30 204 103
329 432 297 787 -38 428 -298 712 -567 619z m183 -447 c60 -63 94 -225 74
-350 -12 -77 -52 -173 -82 -201 -13 -12 -36 -18 -65 -18 -40 0 -49 4 -79 38
-45 53 -65 115 -71 224 -7 107 8 196 43 264 29 59 57 79 108 79 31 0 45 -7 72
-36z"/>
</g>
</svg>
